<?xml version="1.0" encoding="utf-8"?>
<!-- Generator: Adobe Illustrator 16.0.0, SVG Export Plug-In . SVG Version: 6.00 Build 0)  -->
<!DOCTYPE svg PUBLIC "-//W3C//DTD SVG 1.0//EN" "http://www.w3.org/TR/2001/REC-SVG-20010904/DTD/svg10.dtd">
<svg version="1.0" id="Layer_1" xmlns="http://www.w3.org/2000/svg" xmlns:xlink="http://www.w3.org/1999/xlink" x="0px" y="0px"
	 width="800px" height="800px" viewBox="0 0 800 800" enable-background="new 0 0 800 800" xml:space="preserve">
<g>
	<path fill-rule="evenodd" clip-rule="evenodd" fill="#FD0000" d="M22.15,466.883c0-44.029,0.011-88.056-0.042-132.085
		c-0.002-1.718,0.25-2.217,2.139-2.216c251.036,0.057,502.072,0.054,753.108,0.054c-0.024,0.851-0.068,1.702-0.068,2.551
		c-0.002,43.04-0.02,86.079,0.053,129.117c0.005,2.162-0.524,2.632-2.649,2.632C523.845,466.882,272.997,466.883,22.15,466.883z
		 M237.035,398.566c1.695-1.003,3.286-1.801,4.722-2.817c7.736-5.47,8.333-16.049,1.327-22.438
		c-4.769-4.348-10.613-6.141-16.81-6.967c-8.374-1.116-16.697-0.125-25.021,0.782c-1.332,0.145-1.173,0.93-1.173,1.769
		c-0.001,20.654,0.01,41.305-0.029,61.958c-0.002,1.201,0.402,1.553,1.525,1.67c8.753,0.911,17.516,1.797,26.305,0.649
		c6.063-0.792,11.735-2.688,16.43-6.845c8.005-7.088,7.948-21.437-4.086-26.419C239.181,399.476,238.142,399.033,237.035,398.566z
		 M514.487,433.147c-0.536-0.957-0.917-1.69-1.346-2.396c-4.442-7.331-8.867-14.671-13.367-21.965
		c-0.657-1.064-0.733-1.54,0.467-2.234c2.098-1.214,3.807-2.938,5.316-4.845c7.417-9.362,6.058-23.274-2.992-30.063
		c-4.635-3.476-10.036-4.87-15.691-5.328c-7.158-0.582-14.313-0.136-21.458,0.415c-3.655,0.283-3.659,0.239-3.659,3.98
		c0,0.852,0,1.704,0,2.555c0,19.234,0.024,38.47-0.044,57.703c-0.005,1.784,0.467,2.283,2.232,2.22
		c3.758-0.138,7.524-0.118,11.284-0.007c1.604,0.048,2.174-0.303,2.14-2.055c-0.123-6.03-0.009-12.065-0.08-18.099
		c-0.014-1.295,0.29-1.766,1.636-1.644c1.549,0.139,3.127,0.188,4.675,0.063c1.478-0.12,2.244,0.409,2.917,1.733
		c3.171,6.249,6.458,12.438,9.701,18.649c0.358,0.689,0.616,1.348,1.654,1.339C503.311,433.121,508.751,433.147,514.487,433.147z
		 M305.632,400.101c0,10.295,0.045,20.592-0.043,30.888c-0.016,1.805,0.514,2.259,2.252,2.199c3.83-0.13,7.671-0.132,11.501,0.002
		c1.68,0.059,1.981-0.528,1.959-2.058c-0.084-6.035,0.008-12.072-0.067-18.107c-0.017-1.339,0.366-1.737,1.67-1.638
		c1.625,0.127,3.269,0.163,4.894,0.063c1.236-0.075,1.879,0.336,2.45,1.452c3.188,6.245,6.504,12.422,9.684,18.669
		c0.603,1.185,1.27,1.628,2.593,1.605c4.543-0.079,9.089-0.02,13.634-0.043c0.604-0.003,1.409,0.329,1.777-0.243
		c0.41-0.634-0.34-1.142-0.649-1.654c-4.51-7.459-9.017-14.92-13.596-22.337c-0.717-1.163-0.584-1.655,0.543-2.445
		c7.615-5.33,10.916-12.728,9.665-21.896c-1.291-9.453-7.4-14.698-16.23-16.994c-10.226-2.66-20.577-1.367-30.898-0.554
		c-1.525,0.119-1.125,1.153-1.126,1.984C305.627,379.365,305.632,389.733,305.632,400.101z M126.639,399.778
		c0-10.435-0.037-20.872,0.04-31.307c0.012-1.611-0.417-2.047-2.008-1.998c-3.832,0.118-7.668,0.101-11.5,0.007
		c-1.494-0.036-2.091,0.232-2.066,1.938c0.107,7.311-0.02,14.625,0.091,21.936c0.027,1.839-0.567,2.215-2.277,2.193
		c-7.099-0.092-14.2-0.085-21.297-0.002c-1.542,0.017-2.037-0.297-2.013-1.954c0.103-7.382-0.017-14.768,0.091-22.149
		c0.024-1.666-0.476-2.009-2.019-1.967c-3.902,0.106-7.81,0.096-11.712,0.003c-1.421-0.033-1.775,0.421-1.764,1.802
		c0.065,7.524,0.065,15.05-0.001,22.574c-0.012,1.327,0.354,2.232,1.352,3.099c1.604,1.394,3.03,2.99,4.607,4.417
		c0.865,0.784,0.705,1.292-0.086,1.974c-1.608,1.39-3.131,2.881-4.746,4.264c-0.754,0.647-1.124,1.311-1.118,2.35
		c0.043,8.164,0.063,16.328-0.012,24.491c-0.013,1.487,0.524,1.745,1.837,1.721c3.903-0.073,7.813-0.123,11.711,0.02
		c1.691,0.062,1.955-0.524,1.939-2.041c-0.077-7.596,0-15.193-0.067-22.789c-0.013-1.464,0.169-2.074,1.896-2.044
		c7.24,0.115,14.482,0.106,21.723,0.005c1.666-0.024,1.962,0.502,1.946,2.032c-0.078,7.594,0.004,15.191-0.07,22.787
		c-0.015,1.521,0.263,2.111,1.952,2.05c3.828-0.143,7.669-0.133,11.498-0.006c1.674,0.056,2.127-0.416,2.114-2.102
		C126.599,420.65,126.639,410.214,126.639,399.778z M413.592,399.829c0,10.436,0,20.873,0.002,31.309
		c0,1.041-0.274,2.06,1.504,2.051c13.062-0.07,26.125-0.054,39.188-0.013c1.257,0.006,1.562-0.435,1.542-1.593
		c-0.056-3.479-0.112-6.961,0.021-10.436c0.065-1.735-0.382-2.292-2.203-2.266c-7.594,0.105-15.19,0.014-22.788,0.074
		c-1.358,0.011-1.846-0.313-1.795-1.749c0.109-3.12,0.117-6.249-0.004-9.368c-0.059-1.544,0.474-1.872,1.924-1.856
		c6.887,0.073,13.772-0.016,20.659,0.071c1.516,0.02,1.905-0.405,1.852-1.883c-0.116-3.191-0.127-6.392,0.002-9.581
		c0.065-1.637-0.357-2.156-2.072-2.13c-6.813,0.104-13.631,0.002-20.444,0.075c-1.439,0.016-1.992-0.299-1.918-1.845
		c0.128-2.692,0.134-5.399-0.004-8.09c-0.077-1.55,0.446-1.85,1.897-1.836c7.738,0.073,15.478,0.003,23.216,0.066
		c1.313,0.01,1.699-0.344,1.668-1.66c-0.087-3.619-0.111-7.243,0.007-10.86c0.052-1.598-0.584-1.835-1.975-1.831
		c-12.779,0.045-25.559,0.059-38.338-0.013c-1.657-0.009-1.983,0.515-1.973,2.055C413.623,378.958,413.592,389.394,413.592,399.829z
		 M255.626,399.688c0,10.512-0.002,21.022,0.004,31.533c0.001,0.938-0.333,1.963,1.353,1.956
		c13.139-0.056,26.277-0.042,39.418-0.008c1.13,0.001,1.464-0.366,1.446-1.469c-0.057-3.479-0.125-6.965,0.022-10.438
		c0.078-1.821-0.342-2.417-2.294-2.385c-7.598,0.129-15.199,0.016-22.797,0.083c-1.393,0.014-1.812-0.36-1.764-1.761
		c0.104-3.122,0.121-6.253-0.004-9.372c-0.063-1.547,0.458-1.864,1.911-1.849c6.889,0.076,13.779,0,20.667,0.064
		c1.345,0.012,1.839-0.277,1.788-1.728c-0.115-3.264-0.154-6.538,0.01-9.798c0.09-1.787-0.577-2.063-2.155-2.045
		c-6.816,0.079-13.636-0.006-20.453,0.066c-1.395,0.014-1.818-0.365-1.763-1.765c0.108-2.766,0.125-5.542-0.006-8.307
		c-0.071-1.488,0.497-1.708,1.804-1.699c7.67,0.054,15.34-0.012,23.011,0.061c1.503,0.015,2.125-0.223,2.049-1.931
		c-0.152-3.474-0.142-6.962-0.002-10.437c0.066-1.657-0.487-1.993-2.034-1.986c-12.712,0.059-25.425,0.064-38.137-0.005
		c-1.669-0.009-2.125,0.429-2.112,2.11C255.666,378.951,255.626,389.32,255.626,399.688z M716.574,394.15
		c0.141,0.039,0.281,0.077,0.422,0.116c0.063,1.408,0.156,2.816,0.188,4.227c0.243,11.061,0.496,22.122,0.681,33.187
		c0.022,1.291,0.522,1.518,1.65,1.49c2.625-0.066,5.256-0.104,7.878,0.01c1.524,0.068,1.86-0.39,1.788-1.91
		c-0.553-11.545-0.992-23.093-1.475-34.639c-0.405-9.707-0.812-19.414-1.252-29.119c-0.031-0.69,0.343-1.631-0.794-1.937
		c-1.072-0.29-1.509,0.382-1.998,1.134c-6.534,10.041-13.084,20.071-19.631,30.104c-2.726,4.176-5.452,8.352-8.258,12.65
		c-4.094-6.109-8.045-11.991-11.984-17.881c-5.518-8.252-11.024-16.511-16.541-24.763c-0.455-0.683-0.767-1.552-1.92-1.259
		c-1.261,0.32-0.72,1.345-0.904,2.086c-0.034,0.135-0.006,0.283-0.011,0.425c-0.496,11.829-0.997,23.657-1.488,35.485
		c-0.384,9.28-0.731,18.56-1.158,27.837c-0.065,1.411,0.348,1.846,1.759,1.786c2.551-0.109,5.111-0.099,7.665-0.004
		c1.34,0.051,1.845-0.285,1.855-1.729c0.045-6.88,0.241-13.76,0.311-20.639c0.058-5.56,0.012-11.121,0.012-16.682
		c0.246-0.031,0.492-0.063,0.739-0.095c0.383,0.551,0.774,1.095,1.146,1.654c6.198,9.329,12.392,18.662,18.596,27.986
		c1.329,1.996,1.888,2.001,3.18,0.054c2.234-3.365,4.448-6.745,6.675-10.116C707.994,407.12,712.283,400.637,716.574,394.15z
		 M622.289,434.143c19.025,0.019,33.906-14.68,33.963-33.547c0.057-20.041-13.85-34.758-32.418-35.241
		c-19.797-0.514-34.648,15.21-35.014,32.982C588.389,419.295,603.04,434.325,622.289,434.143z M187.196,433.147
		c2.549,0,4.611-0.073,6.666,0.023c1.56,0.074,1.98-0.177,1.219-1.798c-9.982-21.266-19.907-42.559-29.846-63.846
		c-0.381-0.817-0.608-1.659-1.888-1.627c-1.281,0.033-1.449,0.928-1.824,1.728c-3.393,7.24-6.779,14.483-10.163,21.727
		c-6.53,13.978-13.046,27.965-19.601,41.933c-0.638,1.36-0.712,1.947,1.131,1.896c4.114-0.116,8.234-0.089,12.349-0.004
		c1.213,0.026,1.764-0.414,2.183-1.482c1.213-3.097,2.577-6.135,3.757-9.241c0.447-1.176,1.041-1.577,2.306-1.56
		c5.323,0.074,10.647,0.031,15.971,0.031c5.106,0,5.1,0.004,7.105,4.797c1.01,2.414,1.432,5.631,3.242,6.999
		C181.73,434.178,185.006,432.985,187.196,433.147z M563.912,434.156c9.166,0.008,16.062-1.828,22.513-5.427
		c1.026-0.572,1.422-1.066,0.902-2.293c-0.961-2.28-1.782-4.624-2.528-6.984c-0.373-1.178-0.782-1.185-1.769-0.632
		c-4.251,2.384-8.831,3.779-13.669,4.377c-11.807,1.462-24.698-4.139-26.635-19.482c-2.4-19.013,10.894-29.386,26.532-27.293
		c4.335,0.58,8.477,1.719,12.308,3.812c1.531,0.837,2.328,0.964,2.893-1.022c0.577-2.029,1.477-3.984,2.395-5.895
		c0.654-1.362,0.465-2.038-0.942-2.789c-8.153-4.349-16.776-6.008-25.914-4.671c-27.063,3.962-36.031,31.213-25.803,50.505
		C540.802,428.823,552.082,433.717,563.912,434.156z M364.445,399.565c0,10.583,0.018,21.165-0.023,31.747
		c-0.005,1.284,0.179,1.881,1.699,1.873c12.997-0.063,25.995-0.05,38.991-0.01c1.21,0.003,1.583-0.353,1.561-1.561
		c-0.069-3.621-0.104-7.246,0.012-10.864c0.051-1.555-0.503-1.864-1.933-1.853c-7.458,0.065-14.917-0.031-22.373,0.074
		c-1.826,0.028-2.356-0.373-2.347-2.296c0.09-16.049,0.029-32.1,0.085-48.152c0.006-1.541-0.302-2.11-1.963-2.057
		c-3.901,0.125-7.813,0.109-11.716,0.006c-1.549-0.041-2.049,0.334-2.036,1.985C364.486,378.827,364.445,389.196,364.445,399.565z
		 M525.618,433.717c3.518,0.022,6.068-2.488,6.049-5.956c-0.018-3.311-2.582-5.914-5.897-5.987
		c-3.338-0.074-6.079,2.661-6.055,6.038C519.743,431.196,522.242,433.697,525.618,433.717z"/>
	<path fill-rule="evenodd" clip-rule="evenodd" fill="#FEFEFE" d="M22.15,466.883c250.847,0,501.694-0.001,752.541,0.052
		c2.125,0,2.654-0.47,2.649-2.632c-0.072-43.038-0.055-86.077-0.053-129.117c0-0.849,0.044-1.7,0.068-2.551
		c0.892,0.472,0.398,1.293,0.398,1.917c0.03,37.14,0.027,74.279,0.027,111.42c0,6.676-0.02,13.351,0.021,20.026
		c0.007,0.988-0.121,1.557-1.27,1.319c-0.272-0.055-0.567-0.009-0.85-0.009c-250.539,0-501.079,0-751.618-0.026
		C23.443,467.283,22.622,467.774,22.15,466.883z"/>
	<path fill-rule="evenodd" clip-rule="evenodd" fill="#FEFBFB" d="M237.035,398.566c1.107,0.467,2.146,0.91,3.188,1.343
		c12.034,4.983,12.092,19.332,4.086,26.419c-4.695,4.157-10.368,6.053-16.43,6.845c-8.79,1.147-17.552,0.262-26.305-0.649
		c-1.123-0.117-1.527-0.469-1.525-1.67c0.039-20.653,0.028-41.305,0.029-61.958c0-0.839-0.159-1.624,1.173-1.769
		c8.324-0.907,16.648-1.898,25.021-0.782c6.197,0.827,12.041,2.619,16.81,6.967c7.007,6.389,6.409,16.968-1.327,22.438
		C240.32,396.765,238.73,397.563,237.035,398.566z M215.215,412.339c0,2.193,0.031,4.389-0.016,6.583
		c-0.018,0.843,0.168,1.349,1.113,1.38c3.672,0.127,7.359,0.489,10.961-0.603c3.805-1.15,5.766-3.606,5.767-7.168
		c0.001-3.446-1.924-5.854-5.629-7.059c-3.444-1.119-6.986-0.819-10.52-0.795c-1.46,0.008-1.77,0.618-1.703,1.926
		C215.287,408.511,215.215,410.426,215.215,412.339z M215.215,386.811c0,1.917,0.024,3.834-0.012,5.75
		c-0.016,0.832,0.155,1.344,1.131,1.378c3.331,0.114,6.67,0.381,9.939-0.533c3.71-1.039,5.638-3.378,5.629-6.768
		c-0.009-3.271-2.078-5.688-5.734-6.716c-2.797-0.787-5.631-0.39-8.462-0.327c-2.044,0.045-2.823,0.886-2.53,2.962
		C215.374,383.949,215.215,385.392,215.215,386.811z"/>
	<path fill-rule="evenodd" clip-rule="evenodd" fill="#FEFBFB" d="M514.487,433.147c-5.736,0-11.177-0.026-16.615,0.023
		c-1.038,0.009-1.296-0.649-1.654-1.339c-3.243-6.212-6.53-12.4-9.701-18.649c-0.673-1.324-1.439-1.854-2.917-1.733
		c-1.548,0.125-3.126,0.076-4.675-0.063c-1.346-0.122-1.649,0.349-1.636,1.644c0.071,6.033-0.043,12.068,0.08,18.099
		c0.034,1.752-0.536,2.103-2.14,2.055c-3.76-0.111-7.526-0.131-11.284,0.007c-1.766,0.063-2.237-0.436-2.232-2.22
		c0.068-19.233,0.044-38.469,0.044-57.703c0-0.851,0-1.704,0-2.555c0-3.741,0.004-3.697,3.659-3.98
		c7.146-0.551,14.3-0.997,21.458-0.415c5.655,0.458,11.057,1.853,15.691,5.328c9.05,6.788,10.409,20.7,2.992,30.063
		c-1.51,1.906-3.219,3.631-5.316,4.845c-1.2,0.694-1.124,1.17-0.467,2.234c4.5,7.294,8.925,14.634,13.367,21.965
		C513.57,431.457,513.951,432.19,514.487,433.147z M477.321,389.333c0,2.619-0.015,5.238,0.01,7.858
		c0.007,0.574-0.274,1.413,0.713,1.475c4.241,0.27,8.534,0.645,12.272-2.012c3.221-2.289,4.176-5.573,3.684-9.341
		c-0.469-3.573-2.74-5.596-6.02-6.656c-3.107-1.005-6.269-0.817-9.452-0.451c-1.021,0.118-1.249,0.536-1.229,1.482
		C477.358,384.235,477.321,386.784,477.321,389.333z"/>
	<path fill-rule="evenodd" clip-rule="evenodd" fill="#FEFBFB" d="M305.632,400.101c0-10.368-0.005-20.736,0.01-31.105
		c0.001-0.831-0.399-1.865,1.126-1.984c10.321-0.813,20.672-2.106,30.898,0.554c8.831,2.296,14.94,7.541,16.23,16.994
		c1.251,9.167-2.05,16.565-9.665,21.896c-1.127,0.79-1.26,1.282-0.543,2.445c4.58,7.417,9.086,14.878,13.596,22.337
		c0.309,0.513,1.059,1.021,0.649,1.654c-0.369,0.572-1.173,0.24-1.777,0.243c-4.544,0.023-9.091-0.036-13.634,0.043
		c-1.323,0.022-1.991-0.421-2.593-1.605c-3.18-6.247-6.496-12.424-9.684-18.669c-0.57-1.116-1.214-1.527-2.45-1.452
		c-1.625,0.1-3.269,0.063-4.894-0.063c-1.304-0.1-1.687,0.299-1.67,1.638c0.075,6.035-0.017,12.072,0.067,18.107
		c0.021,1.529-0.28,2.116-1.959,2.058c-3.83-0.134-7.671-0.132-11.501-0.002c-1.738,0.06-2.268-0.395-2.252-2.199
		C305.678,420.693,305.632,410.396,305.632,400.101z M321.267,389.335c0,2.621-0.016,5.244,0.012,7.865
		c0.006,0.565-0.295,1.4,0.71,1.47c4.182,0.284,8.407,0.599,12.104-1.937c3.343-2.292,4.336-5.698,3.792-9.516
		c-0.515-3.619-2.939-5.696-6.328-6.675c-2.979-0.862-6.015-0.72-9.061-0.343c-0.995,0.123-1.274,0.52-1.251,1.483
		C321.306,384.231,321.267,386.784,321.267,389.335z"/>
	<path fill-rule="evenodd" clip-rule="evenodd" fill="#FEFCFC" d="M126.639,399.778c0,10.436-0.04,20.872,0.041,31.307
		c0.013,1.686-0.44,2.157-2.114,2.102c-3.829-0.127-7.669-0.137-11.498,0.006c-1.688,0.062-1.966-0.529-1.952-2.05
		c0.075-7.596-0.008-15.193,0.07-22.787c0.016-1.53-0.281-2.057-1.946-2.032c-7.24,0.102-14.483,0.11-21.723-0.005
		c-1.727-0.03-1.909,0.58-1.896,2.044c0.067,7.596-0.01,15.193,0.067,22.789c0.016,1.517-0.248,2.103-1.939,2.041
		c-3.899-0.143-7.809-0.093-11.711-0.02c-1.313,0.024-1.851-0.233-1.837-1.721c0.075-8.163,0.055-16.327,0.012-24.491
		c-0.005-1.039,0.364-1.702,1.118-2.35c1.615-1.383,3.138-2.874,4.746-4.264c0.791-0.682,0.951-1.19,0.086-1.974
		c-1.578-1.427-3.004-3.024-4.607-4.417c-0.998-0.867-1.363-1.772-1.352-3.099c0.067-7.524,0.067-15.05,0.001-22.574
		c-0.012-1.381,0.342-1.835,1.764-1.802c3.902,0.093,7.81,0.103,11.712-0.003c1.543-0.042,2.043,0.301,2.019,1.967
		c-0.108,7.381,0.012,14.767-0.091,22.149c-0.024,1.656,0.472,1.971,2.013,1.954c7.098-0.083,14.198-0.09,21.297,0.002
		c1.709,0.021,2.304-0.354,2.277-2.193c-0.111-7.31,0.016-14.625-0.091-21.936c-0.025-1.706,0.572-1.975,2.066-1.938
		c3.832,0.094,7.668,0.111,11.5-0.007c1.59-0.049,2.02,0.387,2.008,1.998C126.602,378.907,126.639,389.343,126.639,399.778z"/>
	<path fill-rule="evenodd" clip-rule="evenodd" fill="#FEF9F9" d="M413.592,399.829c0-10.435,0.031-20.871-0.032-31.308
		c-0.011-1.541,0.315-2.064,1.973-2.055c12.779,0.072,25.559,0.059,38.338,0.013c1.391-0.005,2.026,0.232,1.975,1.831
		c-0.118,3.617-0.094,7.241-0.007,10.86c0.031,1.316-0.355,1.67-1.668,1.66c-7.738-0.063-15.478,0.007-23.216-0.066
		c-1.451-0.013-1.975,0.287-1.897,1.836c0.138,2.69,0.132,5.398,0.004,8.09c-0.074,1.546,0.479,1.861,1.918,1.845
		c6.813-0.072,13.631,0.029,20.444-0.075c1.715-0.026,2.138,0.493,2.072,2.13c-0.129,3.188-0.118,6.39-0.002,9.581
		c0.054,1.478-0.336,1.902-1.852,1.883c-6.887-0.087-13.772,0.002-20.659-0.071c-1.45-0.016-1.982,0.313-1.924,1.856
		c0.121,3.119,0.113,6.248,0.004,9.368c-0.051,1.437,0.437,1.76,1.795,1.749c7.598-0.061,15.194,0.031,22.788-0.074
		c1.821-0.026,2.269,0.53,2.203,2.266c-0.134,3.475-0.077,6.956-0.021,10.436c0.02,1.158-0.285,1.599-1.542,1.593
		c-13.063-0.041-26.126-0.058-39.188,0.013c-1.778,0.009-1.504-1.01-1.504-2.051C413.592,420.701,413.592,410.265,413.592,399.829z"
		/>
	<path fill-rule="evenodd" clip-rule="evenodd" fill="#FEFBFB" d="M255.626,399.688c0-10.369,0.04-20.738-0.04-31.106
		c-0.013-1.681,0.442-2.119,2.112-2.11c12.712,0.069,25.425,0.063,38.137,0.005c1.547-0.007,2.1,0.33,2.034,1.986
		c-0.14,3.475-0.15,6.963,0.002,10.437c0.076,1.708-0.546,1.946-2.049,1.931c-7.67-0.073-15.34-0.006-23.011-0.061
		c-1.307-0.01-1.875,0.21-1.804,1.699c0.132,2.764,0.115,5.541,0.006,8.307c-0.056,1.4,0.368,1.779,1.763,1.765
		c6.817-0.072,13.637,0.013,20.453-0.066c1.579-0.018,2.246,0.258,2.155,2.045c-0.164,3.26-0.125,6.534-0.01,9.798
		c0.051,1.45-0.443,1.739-1.788,1.728c-6.888-0.064-13.778,0.012-20.667-0.064c-1.452-0.016-1.974,0.302-1.911,1.849
		c0.125,3.119,0.109,6.25,0.004,9.372c-0.047,1.4,0.371,1.774,1.764,1.761c7.599-0.067,15.2,0.046,22.797-0.083
		c1.952-0.032,2.372,0.563,2.294,2.385c-0.147,3.474-0.079,6.959-0.022,10.438c0.018,1.103-0.316,1.47-1.446,1.469
		c-13.141-0.034-26.279-0.048-39.418,0.008c-1.686,0.007-1.352-1.018-1.353-1.956C255.624,420.711,255.626,410.2,255.626,399.688z"
		/>
	<path fill-rule="evenodd" clip-rule="evenodd" fill="#FEFAFA" d="M716.574,394.15c-4.291,6.487-8.58,12.97-12.869,19.458
		c-2.227,3.371-4.44,6.751-6.675,10.116c-1.292,1.947-1.851,1.942-3.18-0.054c-6.204-9.324-12.397-18.657-18.596-27.986
		c-0.372-0.559-0.764-1.103-1.146-1.654c-0.247,0.031-0.493,0.063-0.739,0.095c0,5.561,0.046,11.122-0.012,16.682
		c-0.069,6.879-0.266,13.759-0.311,20.639c-0.011,1.444-0.516,1.78-1.855,1.729c-2.554-0.095-5.114-0.105-7.665,0.004
		c-1.411,0.06-1.824-0.375-1.759-1.786c0.427-9.277,0.774-18.557,1.158-27.837c0.491-11.828,0.992-23.657,1.488-35.485
		c0.005-0.142-0.023-0.291,0.011-0.425c0.185-0.741-0.356-1.766,0.904-2.086c1.153-0.293,1.465,0.577,1.92,1.259
		c5.517,8.252,11.023,16.511,16.541,24.763c3.939,5.89,7.891,11.771,11.984,17.881c2.806-4.299,5.532-8.474,8.258-12.65
		c6.547-10.033,13.097-20.063,19.631-30.104c0.489-0.752,0.926-1.424,1.998-1.134c1.137,0.306,0.763,1.247,0.794,1.937
		c0.44,9.706,0.847,19.413,1.252,29.119c0.482,11.546,0.922,23.094,1.475,34.639c0.072,1.521-0.264,1.979-1.788,1.91
		c-2.622-0.114-5.253-0.076-7.878-0.01c-1.128,0.027-1.628-0.199-1.65-1.49c-0.185-11.064-0.438-22.126-0.681-33.187
		c-0.032-1.411-0.125-2.819-0.188-4.227C716.855,394.228,716.715,394.189,716.574,394.15z"/>
	<path fill-rule="evenodd" clip-rule="evenodd" fill="#FEFBFB" d="M622.289,434.143c-19.249,0.183-33.9-14.848-33.469-35.806
		c0.365-17.772,15.217-33.497,35.014-32.982c18.568,0.483,32.475,15.2,32.418,35.241
		C656.195,419.463,641.314,434.161,622.289,434.143z M601.126,399.241c0.046,4.252,0.562,7.751,1.937,11.06
		c3.216,7.736,8.773,12.688,17.291,13.506c8.905,0.853,15.907-2.683,20.169-10.564c4.816-8.908,4.786-18.163-0.085-27.043
		c-6.273-11.429-21.448-14.097-31.231-5.662C603.319,385.61,601.269,392.393,601.126,399.241z"/>
	<path fill-rule="evenodd" clip-rule="evenodd" fill="#FEFCFC" d="M187.196,433.147c-2.19-0.162-5.466,1.03-7.392-0.424
		c-1.811-1.368-2.232-4.585-3.242-6.999c-2.006-4.793-1.999-4.797-7.105-4.797c-5.324,0-10.648,0.043-15.971-0.031
		c-1.265-0.018-1.858,0.384-2.306,1.56c-1.18,3.106-2.544,6.145-3.757,9.241c-0.419,1.068-0.969,1.509-2.183,1.482
		c-4.115-0.085-8.235-0.112-12.349,0.004c-1.844,0.052-1.77-0.535-1.131-1.896c6.555-13.968,13.071-27.955,19.601-41.933
		c3.383-7.244,6.77-14.487,10.163-21.727c0.375-0.8,0.542-1.695,1.824-1.728c1.28-0.032,1.506,0.811,1.888,1.627
		c9.939,21.287,19.864,42.58,29.846,63.846c0.761,1.621,0.341,1.872-1.219,1.798C191.807,433.074,189.745,433.147,187.196,433.147z
		 M163.254,393.365c-2.193,5.314-4.131,10.068-6.126,14.801c-0.489,1.159,0.282,0.977,0.891,0.979
		c3.469,0.01,6.938-0.016,10.405,0.019c0.998,0.011,1.225-0.232,0.819-1.205C167.289,403.288,165.392,398.593,163.254,393.365z"/>
	<path fill-rule="evenodd" clip-rule="evenodd" fill="#FEFBFB" d="M563.912,434.156c-11.83-0.439-23.11-5.333-29.718-17.796
		c-10.229-19.292-1.261-46.543,25.803-50.505c9.138-1.337,17.761,0.322,25.914,4.671c1.407,0.751,1.597,1.427,0.942,2.789
		c-0.918,1.911-1.817,3.866-2.395,5.895c-0.564,1.987-1.361,1.859-2.893,1.022c-3.831-2.092-7.973-3.232-12.308-3.812
		c-15.639-2.092-28.933,8.28-26.532,27.293c1.937,15.344,14.828,20.944,26.635,19.482c4.838-0.598,9.418-1.993,13.669-4.377
		c0.986-0.553,1.396-0.546,1.769,0.632c0.746,2.36,1.567,4.704,2.528,6.984c0.52,1.227,0.124,1.721-0.902,2.293
		C579.974,432.328,573.078,434.164,563.912,434.156z"/>
	<path fill-rule="evenodd" clip-rule="evenodd" fill="#FEF9F9" d="M364.445,399.565c0-10.369,0.041-20.738-0.042-31.107
		c-0.013-1.651,0.487-2.026,2.036-1.985c3.903,0.104,7.814,0.119,11.716-0.006c1.662-0.054,1.969,0.516,1.963,2.057
		c-0.056,16.052,0.004,32.103-0.085,48.152c-0.01,1.923,0.521,2.324,2.347,2.296c7.456-0.105,14.915-0.009,22.373-0.074
		c1.43-0.012,1.983,0.298,1.933,1.853c-0.115,3.618-0.081,7.243-0.012,10.864c0.022,1.208-0.351,1.563-1.561,1.561
		c-12.997-0.04-25.994-0.053-38.991,0.01c-1.52,0.008-1.705-0.589-1.699-1.873C364.462,420.729,364.445,410.148,364.445,399.565z"/>
	<path fill-rule="evenodd" clip-rule="evenodd" fill="#FEF9F9" d="M525.618,433.717c-3.376-0.02-5.875-2.521-5.903-5.905
		c-0.024-3.377,2.717-6.112,6.055-6.038c3.315,0.073,5.88,2.677,5.897,5.987C531.687,431.229,529.136,433.739,525.618,433.717z"/>
	<path fill-rule="evenodd" clip-rule="evenodd" fill="#FD0202" d="M215.215,412.339c0-1.913,0.072-3.828-0.025-5.735
		c-0.067-1.308,0.243-1.918,1.703-1.926c3.534-0.024,7.076-0.324,10.52,0.795c3.705,1.204,5.63,3.612,5.629,7.059
		c-0.001,3.562-1.962,6.018-5.767,7.168c-3.602,1.092-7.289,0.729-10.961,0.603c-0.945-0.031-1.131-0.537-1.113-1.38
		C215.246,416.728,215.215,414.532,215.215,412.339z"/>
	<path fill-rule="evenodd" clip-rule="evenodd" fill="#FD0202" d="M215.215,386.811c0-1.419,0.159-2.862-0.039-4.254
		c-0.293-2.076,0.486-2.917,2.53-2.962c2.831-0.063,5.665-0.46,8.462,0.327c3.656,1.028,5.725,3.445,5.734,6.716
		c0.009,3.39-1.918,5.729-5.629,6.768c-3.27,0.915-6.608,0.647-9.939,0.533c-0.976-0.034-1.146-0.546-1.131-1.378
		C215.24,390.646,215.215,388.729,215.215,386.811z"/>
	<path fill-rule="evenodd" clip-rule="evenodd" fill="#FD0202" d="M477.321,389.333c0-2.549,0.037-5.098-0.021-7.645
		c-0.021-0.946,0.208-1.364,1.229-1.482c3.184-0.366,6.345-0.554,9.452,0.451c3.279,1.06,5.551,3.083,6.02,6.656
		c0.492,3.769-0.463,7.053-3.684,9.341c-3.738,2.657-8.031,2.282-12.272,2.012c-0.987-0.062-0.706-0.901-0.713-1.475
		C477.307,394.571,477.321,391.952,477.321,389.333z"/>
	<path fill-rule="evenodd" clip-rule="evenodd" fill="#FD0202" d="M321.267,389.335c0-2.552,0.04-5.104-0.021-7.653
		c-0.023-0.964,0.256-1.36,1.251-1.483c3.046-0.377,6.082-0.519,9.061,0.343c3.389,0.979,5.813,3.056,6.328,6.675
		c0.544,3.818-0.45,7.223-3.792,9.516c-3.698,2.536-7.922,2.221-12.104,1.937c-1.005-0.069-0.704-0.904-0.71-1.47
		C321.251,394.579,321.267,391.957,321.267,389.335z"/>
	<path fill-rule="evenodd" clip-rule="evenodd" fill="#FD0101" d="M601.126,399.241c0.143-6.848,2.193-13.63,8.08-18.704
		c9.783-8.435,24.958-5.767,31.231,5.662c4.871,8.88,4.901,18.135,0.085,27.043c-4.262,7.882-11.264,11.417-20.169,10.564
		c-8.518-0.817-14.075-5.77-17.291-13.506C601.688,406.992,601.172,403.493,601.126,399.241z"/>
	<path fill-rule="evenodd" clip-rule="evenodd" fill="#FD0B0B" d="M163.254,393.365c2.138,5.228,4.035,9.923,5.988,14.593
		c0.406,0.973,0.179,1.216-0.819,1.205c-3.467-0.034-6.936-0.009-10.405-0.019c-0.608-0.002-1.379,0.181-0.891-0.979
		C159.123,403.434,161.061,398.679,163.254,393.365z"/>
</g>
</svg>
